<?xml version="1.0" encoding="utf-8"?>
<!-- Generator: Adobe Illustrator 17.0.0, SVG Export Plug-In . SVG Version: 6.00 Build 0)  -->
<!DOCTYPE svg PUBLIC "-//W3C//DTD SVG 1.1//EN" "http://www.w3.org/Graphics/SVG/1.1/DTD/svg11.dtd">
<svg version="1.1" id="Layer_1" xmlns="http://www.w3.org/2000/svg" xmlns:xlink="http://www.w3.org/1999/xlink" x="0px" y="0px"
	 width="105.01px" height="95.18px" viewBox="0 0 105.01 95.18" enable-background="new 0 0 105.01 95.18" xml:space="preserve">
<g>
	<g>
		<path fill="#2E2E2F" d="M26.063,13.537c0,2.515-2.039,4.555-4.555,4.555h-8.35c-2.515,0-4.555-2.039-4.555-4.555v-2.646
			c0-2.515,2.039-4.555,4.555-4.555h8.35c2.515,0,4.555,2.039,4.555,4.555V13.537z"/>
		<path fill="#414042" d="M100.846,10.881H71.811c0.355-0.761,0.557-1.634,0.557-2.563v-2.97C72.368,2.394,70.329,0,67.813,0H38.714
			c-2.515,0-4.555,2.394-4.555,5.347v2.97c0,0.929,0.202,1.802,0.557,2.563H4.163C1.864,10.881,0,12.92,0,15.435v49.089
			c0,2.515,1.864,4.555,4.163,4.555h96.683c2.299,0,4.163-2.039,4.163-4.555V15.435C105.01,12.92,103.146,10.881,100.846,10.881z
			 M68.446,8.533c0,2.033-1.621,3.682-3.62,3.682H41.701c-1.999,0-3.62-1.648-3.62-3.682V6.487c0-2.033,1.621-3.682,3.62-3.682
			h23.125c1.999,0,3.62,1.648,3.62,3.682V8.533z"/>
		<circle cx="53.011" cy="42.383" r="25.177"/>
		<circle fill="#414042" cx="52.884" cy="42.257" r="22.267"/>
		<circle fill="#616264" cx="52.884" cy="42.257" r="20.048"/>
		<circle fill="#414042" cx="53.011" cy="42.383" r="8.682"/>
		<circle fill="#58595B" cx="53.011" cy="42.383" r="8.018"/>
		<circle fill="#BCBEC0" cx="59.716" cy="36.121" r="3.796"/>
		<circle fill="#F1F2F2" cx="60.096" cy="35.741" r="3.416"/>
		<circle fill="#F1F2F2" cx="49.041" cy="47.08" r="2.23"/>
	</g>
	<g>
		<path d="M2.121,76.906v4.14H1.307v-9.964h3.429c1.044,0,1.853,0.266,2.426,0.797c0.572,0.531,0.859,1.235,0.859,2.111
			c0,0.885-0.287,1.592-0.859,2.122c-0.573,0.529-1.381,0.794-2.426,0.794H2.121z M2.121,76.208h2.614
			c0.821,0,1.438-0.208,1.851-0.626c0.413-0.417,0.619-0.943,0.619-1.578c0-0.639-0.205-1.169-0.616-1.591S5.561,71.78,4.736,71.78
			H2.121V76.208z"/>
		<path d="M14.084,81.046c-0.055-0.251-0.094-0.468-0.116-0.65c-0.023-0.183-0.034-0.367-0.034-0.555
			c-0.274,0.388-0.639,0.709-1.095,0.965c-0.456,0.256-0.969,0.383-1.54,0.383c-0.721,0-1.281-0.191-1.68-0.575
			c-0.399-0.383-0.599-0.896-0.599-1.54c0-0.685,0.295-1.232,0.886-1.643c0.59-0.411,1.388-0.616,2.392-0.616h1.636V75.9
			c0-0.529-0.17-0.944-0.51-1.245c-0.34-0.301-0.815-0.452-1.427-0.452c-0.57,0-1.043,0.144-1.42,0.431
			c-0.376,0.287-0.564,0.639-0.564,1.054l-0.753-0.007L9.245,75.64c-0.027-0.552,0.225-1.046,0.756-1.481
			c0.531-0.436,1.208-0.654,2.029-0.654c0.817,0,1.474,0.208,1.971,0.623c0.497,0.415,0.746,1.01,0.746,1.786v3.641
			c0,0.26,0.015,0.513,0.044,0.759c0.03,0.247,0.079,0.491,0.147,0.732H14.084z M11.394,80.465c0.588,0,1.108-0.138,1.56-0.414
			s0.778-0.628,0.979-1.058v-1.546h-1.649c-0.744,0-1.338,0.159-1.783,0.476c-0.445,0.317-0.667,0.71-0.667,1.181
			c0,0.401,0.138,0.729,0.414,0.982C10.524,80.338,10.906,80.465,11.394,80.465z"/>
		<path d="M17.567,71.52h-0.814v-1.15h0.814V71.52z M17.567,81.046h-0.814v-7.405h0.814V81.046z"/>
		<path d="M23.987,79.16c0-0.346-0.143-0.648-0.428-0.908c-0.285-0.26-0.799-0.471-1.543-0.635c-0.885-0.191-1.539-0.445-1.96-0.759
			c-0.422-0.315-0.633-0.76-0.633-1.334c0-0.566,0.238-1.044,0.715-1.434c0.477-0.39,1.107-0.585,1.892-0.585
			c0.835,0,1.496,0.207,1.984,0.62c0.488,0.413,0.721,0.929,0.698,1.55l-0.014,0.041h-0.76c0-0.406-0.172-0.76-0.517-1.061
			c-0.345-0.301-0.809-0.452-1.393-0.452c-0.598,0-1.046,0.128-1.345,0.385c-0.299,0.256-0.448,0.557-0.448,0.902
			c0,0.34,0.129,0.622,0.387,0.845c0.258,0.222,0.772,0.417,1.543,0.585c0.88,0.197,1.54,0.466,1.978,0.807s0.657,0.805,0.657,1.39
			c0,0.618-0.25,1.118-0.75,1.5c-0.5,0.382-1.16,0.573-1.981,0.573c-0.899,0-1.605-0.214-2.118-0.643s-0.756-0.94-0.729-1.533
			l0.014-0.041h0.752c0.032,0.532,0.25,0.917,0.654,1.158s0.879,0.361,1.427,0.361c0.593,0,1.061-0.13,1.403-0.389
			S23.987,79.529,23.987,79.16z"/>
		<path d="M27.326,81.046h-0.814V70.37h0.814V81.046z"/>
		<path d="M32.09,81.19c-0.926,0-1.696-0.342-2.31-1.026c-0.613-0.685-0.92-1.551-0.92-2.601v-0.376
			c0-1.058,0.305-1.937,0.914-2.635c0.609-0.698,1.347-1.047,2.214-1.047c0.908,0,1.622,0.288,2.142,0.862s0.78,1.341,0.78,2.299
			v0.698h-5.229v0.198c0,0.833,0.221,1.53,0.664,2.09c0.442,0.56,1.024,0.84,1.745,0.84c0.511,0,0.946-0.071,1.307-0.212
			c0.36-0.141,0.668-0.344,0.924-0.609l0.349,0.561c-0.278,0.293-0.63,0.526-1.057,0.699C33.186,81.103,32.679,81.19,32.09,81.19z
			 M31.987,74.203c-0.606,0-1.115,0.231-1.526,0.692c-0.411,0.462-0.65,1.041-0.719,1.737l0.014,0.034h4.339v-0.205
			c0-0.642-0.189-1.178-0.568-1.611C33.148,74.419,32.635,74.203,31.987,74.203z"/>
		<path d="M38.263,79.041l0.26,0.882h0.041l2.238-6.282h0.917l-3.216,8.589c-0.192,0.501-0.44,0.928-0.746,1.28
			c-0.306,0.351-0.753,0.527-1.341,0.527c-0.096,0-0.212-0.01-0.349-0.031c-0.137-0.021-0.237-0.042-0.301-0.065l0.096-0.684
			c0.055,0.009,0.143,0.02,0.263,0.031c0.121,0.011,0.209,0.017,0.264,0.017c0.356,0,0.641-0.126,0.855-0.38
			c0.214-0.253,0.397-0.578,0.547-0.975l0.39-0.999l-2.86-7.309h0.91L38.263,79.041z"/>
		<path d="M46.913,80.348h4.927v0.698h-5.749v-9.964h0.821V80.348z"/>
		<path d="M57.658,81.046c-0.055-0.251-0.094-0.468-0.116-0.65c-0.023-0.183-0.034-0.367-0.034-0.555
			c-0.274,0.388-0.639,0.709-1.095,0.965c-0.456,0.256-0.969,0.383-1.54,0.383c-0.721,0-1.281-0.191-1.68-0.575
			c-0.399-0.383-0.599-0.896-0.599-1.54c0-0.685,0.295-1.232,0.886-1.643c0.59-0.411,1.388-0.616,2.392-0.616h1.636V75.9
			c0-0.529-0.17-0.944-0.51-1.245c-0.34-0.301-0.815-0.452-1.427-0.452c-0.57,0-1.043,0.144-1.42,0.431
			c-0.376,0.287-0.564,0.639-0.564,1.054l-0.753-0.007L52.82,75.64c-0.027-0.552,0.225-1.046,0.756-1.481
			c0.531-0.436,1.208-0.654,2.029-0.654c0.817,0,1.474,0.208,1.971,0.623c0.497,0.415,0.746,1.01,0.746,1.786v3.641
			c0,0.26,0.015,0.513,0.044,0.759c0.03,0.247,0.079,0.491,0.147,0.732H57.658z M54.969,80.465c0.588,0,1.108-0.138,1.56-0.414
			s0.778-0.628,0.979-1.058v-1.546h-1.649c-0.744,0-1.338,0.159-1.783,0.476c-0.445,0.317-0.667,0.71-0.667,1.181
			c0,0.401,0.138,0.729,0.414,0.982C54.098,80.338,54.48,80.465,54.969,80.465z"/>
		<path d="M65.076,79.835c-0.237,0.434-0.557,0.768-0.958,1.003c-0.401,0.235-0.876,0.352-1.423,0.352
			c-0.78,0-1.392-0.264-1.834-0.793c-0.443-0.529-0.664-1.351-0.664-2.464v-4.291h0.821v4.313c0,0.905,0.154,1.554,0.462,1.947
			c0.308,0.393,0.745,0.59,1.311,0.59c0.621,0,1.116-0.14,1.485-0.418c0.37-0.279,0.627-0.663,0.773-1.152v-5.28h0.821v7.405h-0.726
			L65.076,79.835z"/>
		<path d="M71.154,74.346l-0.609-0.041c-0.516,0-0.939,0.145-1.27,0.435c-0.331,0.29-0.567,0.688-0.708,1.194v5.112h-0.821v-7.405
			h0.719l0.103,1.232v0.082c0.214-0.456,0.502-0.812,0.862-1.067s0.79-0.383,1.287-0.383c0.105,0,0.207,0.008,0.305,0.024
			c0.098,0.016,0.179,0.033,0.243,0.051L71.154,74.346z"/>
		<path d="M74.884,81.19c-0.926,0-1.696-0.342-2.31-1.026c-0.613-0.685-0.92-1.551-0.92-2.601v-0.376
			c0-1.058,0.305-1.937,0.914-2.635c0.609-0.698,1.347-1.047,2.214-1.047c0.908,0,1.622,0.288,2.142,0.862s0.78,1.341,0.78,2.299
			v0.698h-5.229v0.198c0,0.833,0.221,1.53,0.664,2.09c0.442,0.56,1.024,0.84,1.745,0.84c0.511,0,0.946-0.071,1.307-0.212
			c0.36-0.141,0.668-0.344,0.924-0.609l0.349,0.561c-0.278,0.293-0.63,0.526-1.057,0.699C75.979,81.103,75.472,81.19,74.884,81.19z
			 M74.781,74.203c-0.606,0-1.115,0.231-1.526,0.692c-0.411,0.462-0.65,1.041-0.719,1.737l0.014,0.034h4.339v-0.205
			c0-0.642-0.189-1.178-0.568-1.611C75.942,74.419,75.429,74.203,74.781,74.203z"/>
		<path d="M79.77,73.641l0.075,1.293c0.237-0.456,0.558-0.809,0.961-1.057s0.882-0.373,1.434-0.373c0.803,0,1.414,0.246,1.834,0.736
			c0.419,0.49,0.629,1.256,0.629,2.296v4.51h-0.821v-4.512c0-0.851-0.159-1.452-0.476-1.804s-0.768-0.528-1.352-0.528
			c-0.575,0-1.043,0.152-1.406,0.456c-0.363,0.304-0.624,0.708-0.784,1.21v5.177h-0.821v-7.405H79.77z"/>
		<path d="M87.114,80.348h4.811v0.698H86.1v-0.608l4.462-6.098h-4.325v-0.698h5.358v0.604L87.114,80.348z"/>
		<path d="M94.059,71.52h-0.814v-1.15h0.814V71.52z M94.059,81.046h-0.814v-7.405h0.814V81.046z"/>
		<path d="M95.586,77.234c0-1.09,0.299-1.984,0.896-2.683c0.598-0.698,1.39-1.047,2.375-1.047c0.99,0,1.784,0.349,2.381,1.047
			c0.598,0.698,0.896,1.592,0.896,2.683v0.226c0,1.095-0.298,1.99-0.893,2.686s-1.386,1.043-2.371,1.043
			c-0.995,0-1.791-0.348-2.389-1.043s-0.896-1.591-0.896-2.686V77.234z M96.407,77.457c0,0.857,0.217,1.577,0.65,2.16
			c0.433,0.583,1.038,0.875,1.813,0.875c0.762,0,1.36-0.292,1.796-0.875c0.436-0.583,0.653-1.303,0.653-2.16v-0.226
			c0-0.843-0.219-1.559-0.657-2.146s-1.041-0.882-1.807-0.882c-0.767,0-1.367,0.294-1.8,0.882c-0.434,0.588-0.65,1.303-0.65,2.146
			V77.457z"/>
		<path d="M1.24,89.994v3.052H0.976v-7.109h2.222c0.736,0,1.302,0.185,1.699,0.554s0.596,0.86,0.596,1.472
			c0,0.619-0.198,1.112-0.593,1.479s-0.963,0.552-1.702,0.552H1.24z M1.24,89.731h1.958c0.674,0,1.181-0.167,1.521-0.503
			s0.51-0.753,0.51-1.255c0-0.514-0.169-0.938-0.508-1.272s-0.846-0.5-1.523-0.5H1.24V89.731z"/>
		<path d="M11.709,88.876c0.163-0.384,0.402-0.682,0.718-0.894s0.702-0.317,1.157-0.317c0.55,0,0.968,0.174,1.252,0.522
			s0.427,0.897,0.427,1.646v3.213h-0.269v-3.223c0-0.693-0.128-1.183-0.383-1.467s-0.597-0.427-1.023-0.427
			c-0.57,0-1.006,0.17-1.309,0.51s-0.493,0.775-0.571,1.306v3.301h-0.264v-7.617h0.264V88.876z"/>
		<path d="M21.104,90.302c0-0.775,0.214-1.408,0.642-1.899s0.984-0.737,1.667-0.737c0.687,0,1.244,0.246,1.672,0.737
			s0.642,1.125,0.642,1.899v0.205c0,0.778-0.214,1.413-0.642,1.904s-0.982,0.737-1.663,0.737c-0.687,0-1.245-0.246-1.675-0.737
			s-0.645-1.126-0.645-1.904V90.302z M21.368,90.507c0,0.664,0.186,1.227,0.557,1.687s0.871,0.691,1.499,0.691
			c0.619,0,1.113-0.231,1.484-0.693s0.557-1.024,0.557-1.685v-0.205c0-0.648-0.187-1.205-0.562-1.672s-0.871-0.701-1.489-0.701
			c-0.622,0-1.118,0.233-1.489,0.701s-0.557,1.024-0.557,1.672V90.507z"/>
		<path d="M32.139,86.337v1.426h1.299v0.269h-1.299v3.652c0,0.433,0.073,0.741,0.22,0.925s0.34,0.276,0.581,0.276
			c0.088,0,0.166-0.003,0.234-0.01s0.163-0.018,0.283-0.034l0.049,0.239c-0.082,0.026-0.166,0.044-0.254,0.054
			s-0.187,0.015-0.298,0.015c-0.355,0-0.624-0.116-0.808-0.347c-0.184-0.231-0.276-0.604-0.276-1.118v-3.652h-0.977v-0.269h0.977
			v-1.426H32.139z"/>
		<path d="M38.868,90.302c0-0.775,0.214-1.408,0.642-1.899s0.984-0.737,1.667-0.737c0.687,0,1.244,0.246,1.672,0.737
			s0.642,1.125,0.642,1.899v0.205c0,0.778-0.214,1.413-0.642,1.904s-0.982,0.737-1.663,0.737c-0.687,0-1.245-0.246-1.675-0.737
			s-0.645-1.126-0.645-1.904V90.302z M39.132,90.507c0,0.664,0.186,1.227,0.557,1.687s0.871,0.691,1.499,0.691
			c0.619,0,1.113-0.231,1.484-0.693s0.557-1.024,0.557-1.685v-0.205c0-0.648-0.187-1.205-0.562-1.672s-0.871-0.701-1.489-0.701
			c-0.622,0-1.118,0.233-1.489,0.701s-0.557,1.024-0.557,1.672V90.507z"/>
		<path d="M49.108,90.4c0-0.836,0.176-1.501,0.527-1.995s0.84-0.74,1.465-0.74c0.41,0,0.767,0.093,1.069,0.278
			s0.543,0.441,0.723,0.767l0.039-0.947h0.225v5.312c0,0.67-0.177,1.189-0.53,1.555s-0.842,0.549-1.467,0.549
			c-0.257,0-0.525-0.027-0.803-0.081s-0.521-0.128-0.73-0.222l0.078-0.264c0.238,0.104,0.467,0.182,0.688,0.232
			s0.474,0.076,0.757,0.076c0.57,0,1.002-0.159,1.296-0.476s0.442-0.774,0.442-1.37v-0.84c-0.179,0.28-0.421,0.502-0.728,0.667
			s-0.663,0.247-1.069,0.247c-0.622,0-1.107-0.238-1.458-0.713s-0.525-1.12-0.525-1.934V90.4z M49.377,90.502
			c0,0.729,0.145,1.309,0.435,1.738s0.714,0.645,1.274,0.645c0.459,0,0.84-0.104,1.143-0.31s0.522-0.482,0.659-0.828v-2.5
			c-0.13-0.375-0.336-0.688-0.618-0.94s-0.673-0.378-1.174-0.378c-0.56,0-0.986,0.229-1.279,0.686s-0.439,1.052-0.439,1.785V90.502z
			"/>
		<path d="M61.76,87.953l-0.342-0.029c-0.472,0-0.855,0.152-1.15,0.457s-0.486,0.706-0.574,1.204v3.462h-0.264v-5.283h0.215
			l0.049,0.918v0.181c0.146-0.377,0.365-0.671,0.654-0.881s0.646-0.315,1.069-0.315c0.075,0,0.144,0.006,0.208,0.017
			s0.118,0.023,0.164,0.037L61.76,87.953z"/>
		<path d="M70.667,92.07c-0.182,0.319-0.454,0.579-0.815,0.779s-0.799,0.3-1.313,0.3c-0.492,0-0.877-0.134-1.157-0.403
			s-0.42-0.631-0.42-1.086c0-0.443,0.209-0.814,0.627-1.113s0.941-0.449,1.57-0.449h1.509v-0.771c0-0.439-0.141-0.782-0.422-1.028
			s-0.678-0.369-1.189-0.369c-0.479,0-0.863,0.116-1.155,0.347s-0.437,0.529-0.437,0.894l-0.22-0.01l-0.01-0.024
			c-0.02-0.41,0.14-0.758,0.479-1.042s0.786-0.427,1.343-0.427c0.566,0,1.021,0.143,1.362,0.43s0.513,0.7,0.513,1.24v2.646
			c0,0.186,0.011,0.366,0.032,0.542s0.056,0.35,0.105,0.522h-0.293c-0.042-0.231-0.071-0.404-0.085-0.52s-0.022-0.24-0.022-0.374
			V92.07z M68.538,92.89c0.524,0,0.968-0.116,1.331-0.347s0.629-0.562,0.798-0.991v-1.187h-1.494c-0.547,0-1.008,0.126-1.384,0.378
			s-0.564,0.564-0.564,0.935c0,0.355,0.12,0.646,0.359,0.872S68.141,92.89,68.538,92.89z"/>
		<path d="M81.267,90.502c0,0.814-0.176,1.458-0.527,1.934s-0.836,0.713-1.455,0.713c-0.414,0-0.774-0.083-1.082-0.249
			s-0.548-0.391-0.72-0.674v2.852H77.22v-7.314h0.205l0.054,0.947c0.176-0.326,0.415-0.581,0.718-0.767s0.663-0.278,1.079-0.278
			c0.622,0,1.109,0.247,1.462,0.74s0.53,1.158,0.53,1.995V90.502z M80.999,90.4c0-0.732-0.147-1.327-0.442-1.785
			s-0.72-0.686-1.277-0.686c-0.511,0-0.908,0.128-1.191,0.386s-0.485,0.573-0.605,0.947v2.471c0.13,0.352,0.348,0.631,0.654,0.84
			s0.69,0.312,1.152,0.312c0.557,0,0.98-0.215,1.272-0.645s0.437-1.009,0.437-1.738V90.4z"/>
		<path d="M87.567,88.876c0.163-0.384,0.402-0.682,0.718-0.894s0.702-0.317,1.157-0.317c0.55,0,0.968,0.174,1.252,0.522
			s0.427,0.897,0.427,1.646v3.213h-0.269v-3.223c0-0.693-0.128-1.183-0.383-1.467s-0.597-0.427-1.023-0.427
			c-0.57,0-1.006,0.17-1.309,0.51s-0.493,0.775-0.571,1.306v3.301h-0.264v-7.617h0.264V88.876z"/>
		<path d="M98.773,92.089l0.195,0.527h0.029l0.029-0.078l1.826-4.775h0.293l-2.349,6.162c-0.143,0.371-0.31,0.673-0.5,0.906
			s-0.494,0.349-0.911,0.349c-0.062,0-0.13-0.006-0.205-0.017s-0.13-0.023-0.166-0.037l0.044-0.249
			c0.036,0.01,0.089,0.02,0.161,0.029s0.127,0.015,0.166,0.015c0.299,0,0.533-0.088,0.701-0.264s0.316-0.436,0.447-0.781
			l0.317-0.859l-2.104-5.254h0.288L98.773,92.089z"/>
	</g>
</g>
</svg>
