<?xml version="1.0" encoding="utf-8"?>
<!-- Generator: Adobe Illustrator 17.0.0, SVG Export Plug-In . SVG Version: 6.00 Build 0)  -->
<!DOCTYPE svg PUBLIC "-//W3C//DTD SVG 1.1//EN" "http://www.w3.org/Graphics/SVG/1.1/DTD/svg11.dtd">
<svg version="1.1" id="Layer_1" xmlns="http://www.w3.org/2000/svg" xmlns:xlink="http://www.w3.org/1999/xlink" x="0px" y="0px"
	 width="101.527px" height="34.016px" viewBox="-34.016 -9.256 101.527 34.016"
	 enable-background="new -34.016 -9.256 101.527 34.016" xml:space="preserve">
<path fill="#65CCEF" d="M-17.008,24.76C-7.615,24.76,0,17.146,0,7.752C0-1.641-7.615-9.256-17.008-9.256S-34.016-1.641-34.016,7.752
	S-26.401,24.76-17.008,24.76"/>
<path fill="#FFFFFF" d="M-8.475,3.296c-0.626,0.278-1.301,0.466-2.007,0.55c0.722-0.433,1.276-1.117,1.537-1.933
	c-0.676,0.4-1.423,0.691-2.22,0.847c-0.636-0.679-1.545-1.103-2.551-1.103c-1.929,0-3.494,1.565-3.494,3.495
	c0,0.274,0.03,0.54,0.09,0.796c-2.905-0.146-5.479-1.536-7.205-3.652c-0.301,0.518-0.473,1.118-0.473,1.759
	c0,1.211,0.617,2.282,1.555,2.909c-0.573-0.017-1.112-0.176-1.584-0.436v0.043c0,1.694,1.205,3.107,2.805,3.427
	c-0.293,0.082-0.602,0.123-0.921,0.123c-0.225,0-0.445-0.021-0.657-0.062c0.444,1.388,1.735,2.399,3.265,2.426
	c-1.196,0.938-2.704,1.497-4.341,1.497c-0.282,0-0.561-0.016-0.834-0.048c1.547,0.991,3.384,1.57,5.358,1.57
	c6.43,0,9.945-5.325,9.945-9.945c0-0.152-0.003-0.303-0.009-0.452C-9.536,4.613-8.942,3.997-8.475,3.296"/>
<g>
	<path fill="#65CCEF" d="M11.577,12.315h0.8c-0.675,0.841-1.299,1.43-1.873,1.767c-0.815,0.474-1.744,0.71-2.786,0.71
		c-1.103,0-2.119-0.261-3.05-0.782c-0.932-0.521-1.657-1.233-2.178-2.134c-0.521-0.902-0.781-1.887-0.781-2.954
		c0-1.083,0.263-2.09,0.789-3.022S3.74,4.244,4.646,3.728c0.906-0.517,1.897-0.774,2.975-0.774c1.52,0,2.803,0.487,3.85,1.462
		s1.571,2.109,1.571,3.404c0,0.942-0.218,1.754-0.653,2.437s-1.026,1.213-1.771,1.591c-0.569,0.292-1.055,0.438-1.458,0.438
		c-0.292,0-0.524-0.078-0.695-0.234c-0.131-0.116-0.199-0.317-0.204-0.604c-0.171,0.216-0.406,0.397-0.706,0.543
		s-0.61,0.219-0.932,0.219c-0.725,0-1.323-0.251-1.796-0.752c-0.473-0.502-0.71-1.166-0.71-1.992c0-0.892,0.287-1.706,0.86-2.441
		S6.34,5.92,7.346,5.92c0.442,0,0.813,0.083,1.112,0.249C8.757,6.336,9.04,6.625,9.307,7.037l0.199-1.042h0.817l-0.875,4.938
		c-0.025,0.161-0.038,0.265-0.038,0.311c0,0.118,0.035,0.21,0.106,0.276c0.07,0.067,0.161,0.1,0.271,0.1
		c0.297,0,0.684-0.173,1.159-0.518c0.476-0.345,0.846-0.789,1.11-1.33c0.264-0.542,0.396-1.143,0.396-1.803
		c0-1.28-0.496-2.34-1.488-3.182c-0.926-0.781-2.053-1.171-3.382-1.171c-0.986,0-1.881,0.226-2.684,0.676
		C4.096,4.745,3.462,5.379,2.996,6.198C2.53,7.016,2.298,7.902,2.298,8.854c0,0.962,0.234,1.85,0.702,2.663s1.116,1.452,1.944,1.916
		s1.74,0.695,2.737,0.695c0.73,0,1.392-0.131,1.986-0.393C10.26,13.473,10.897,13,11.577,12.315z M7.001,11.356
		c0.332,0,0.644-0.104,0.936-0.314S8.46,10.519,8.631,10.1c0.221-0.55,0.332-1.103,0.332-1.658c0-0.508-0.142-0.921-0.426-1.238
		C8.252,6.887,7.884,6.728,7.431,6.728c-0.604,0-1.125,0.249-1.566,0.745s-0.66,1.115-0.66,1.856c0,0.62,0.167,1.113,0.501,1.479
		C6.041,11.174,6.472,11.356,7.001,11.356z"/>
	<path fill="#65CCEF" d="M14.658,6.366h1.057v1.51c0.418-0.574,0.897-1.004,1.44-1.291c0.543-0.287,1.149-0.43,1.818-0.43
		c1.166,0,2.164,0.42,2.994,1.261c0.829,0.841,1.244,1.853,1.244,3.035c0,1.208-0.411,2.233-1.233,3.077
		c-0.821,0.843-1.813,1.265-2.975,1.265c-0.654,0-1.255-0.136-1.803-0.408c-0.549-0.272-1.044-0.677-1.486-1.215v4.417h-1.057
		L14.658,6.366L14.658,6.366z M18.886,7.174c-0.914,0-1.684,0.319-2.309,0.958s-0.937,1.433-0.937,2.382
		c0,0.624,0.14,1.184,0.418,1.682s0.678,0.892,1.197,1.184c0.521,0.292,1.068,0.438,1.646,0.438c0.567,0,1.101-0.147,1.601-0.441
		s0.897-0.705,1.193-1.233c0.297-0.527,0.444-1.081,0.444-1.659c0-0.583-0.146-1.136-0.44-1.659
		c-0.294-0.523-0.689-0.929-1.187-1.218C20.016,7.318,19.474,7.174,18.886,7.174z"/>
	<path fill="#65CCEF" d="M32.756,6.366v8.214h-1.042v-1.412c-0.442,0.539-0.94,0.943-1.491,1.215s-1.153,0.408-1.808,0.408
		c-1.163,0-2.156-0.421-2.979-1.265c-0.823-0.843-1.235-1.869-1.235-3.077c0-1.183,0.416-2.194,1.246-3.035
		c0.831-0.84,1.83-1.261,2.997-1.261c0.675,0,1.285,0.144,1.831,0.43C30.822,6.87,31.3,7.3,31.713,7.874v-1.51h1.043V6.366z
		 M28.531,7.174c-0.588,0-1.131,0.145-1.629,0.434c-0.497,0.29-0.894,0.695-1.188,1.218c-0.294,0.523-0.441,1.076-0.441,1.659
		c0,0.578,0.148,1.131,0.445,1.659c0.297,0.528,0.695,0.939,1.195,1.233s1.037,0.441,1.61,0.441c0.578,0,1.126-0.146,1.644-0.438
		s0.916-0.686,1.195-1.184s0.418-1.059,0.418-1.682c0-0.95-0.312-1.744-0.938-2.383S29.446,7.174,28.531,7.174z"/>
	<path fill="#65CCEF" d="M34.882,2.984c0.24,0,0.446,0.085,0.616,0.256c0.171,0.171,0.256,0.377,0.256,0.619
		c0,0.237-0.085,0.44-0.256,0.612c-0.17,0.171-0.376,0.256-0.616,0.256c-0.235,0-0.438-0.085-0.609-0.256
		c-0.17-0.171-0.255-0.375-0.255-0.612c0-0.242,0.085-0.448,0.255-0.619C34.444,3.069,34.647,2.984,34.882,2.984z M34.358,6.366
		h1.057v8.214h-1.057V6.366z"/>
	<path fill="#65CCEF" d="M41.122,7.264l-0.68,0.702c-0.565-0.549-1.117-0.823-1.657-0.823c-0.344,0-0.638,0.113-0.882,0.34
		c-0.245,0.227-0.367,0.491-0.367,0.793c0,0.267,0.101,0.521,0.303,0.762c0.201,0.247,0.625,0.536,1.271,0.869
		c0.787,0.408,1.321,0.8,1.604,1.178c0.277,0.382,0.416,0.813,0.416,1.291c0,0.674-0.237,1.246-0.711,1.714
		s-1.066,0.702-1.777,0.702c-0.474,0-0.926-0.103-1.357-0.31c-0.431-0.207-0.787-0.491-1.069-0.853l0.664-0.755
		c0.54,0.609,1.112,0.914,1.718,0.914c0.424,0,0.784-0.136,1.082-0.408c0.298-0.271,0.447-0.591,0.447-0.958
		c0-0.302-0.099-0.571-0.296-0.808c-0.196-0.231-0.641-0.523-1.331-0.875c-0.742-0.383-1.246-0.76-1.514-1.133s-0.4-0.798-0.4-1.276
		c0-0.624,0.213-1.143,0.639-1.555s0.964-0.619,1.614-0.619C39.595,6.154,40.356,6.524,41.122,7.264z"/>
	<path fill="#65CCEF" d="M42.218,3.195h1.057V14.58h-1.057V3.195z"/>
	<path fill="#65CCEF" d="M51.77,11.855l0.891,0.468c-0.292,0.574-0.63,1.037-1.013,1.389s-0.813,0.62-1.292,0.804
		s-1.021,0.275-1.625,0.275c-1.34,0-2.388-0.439-3.144-1.317s-1.134-1.871-1.134-2.979c0-1.042,0.32-1.971,0.96-2.786
		c0.812-1.037,1.896-1.555,3.257-1.555c1.4,0,2.52,0.531,3.355,1.593c0.595,0.75,0.896,1.687,0.907,2.809H45.54
		c0.02,0.955,0.324,1.736,0.914,2.347c0.59,0.61,1.318,0.915,2.185,0.915c0.419,0,0.825-0.073,1.221-0.218
		c0.396-0.146,0.732-0.339,1.01-0.579C51.148,12.78,51.447,12.391,51.77,11.855z M51.77,9.642c-0.142-0.563-0.347-1.014-0.616-1.351
		c-0.27-0.337-0.626-0.609-1.069-0.815c-0.444-0.207-0.91-0.31-1.398-0.31c-0.807,0-1.5,0.259-2.079,0.777
		c-0.424,0.378-0.743,0.944-0.96,1.699H51.77z"/>
	<path fill="#65CCEF" d="M53.402,6.366h1.117l2.823,6.325l2.741-6.325h1.125l-4.9,11.219h-1.116l1.581-3.627L53.402,6.366z"/>
	<path fill="#65CCEF" d="M62.129,3.474h1.109v10.034h4.273v1.072h-5.383L62.129,3.474L62.129,3.474z"/>
</g>
</svg>
